<?xml version="1.0" encoding="UTF-8" standalone="no"?><!DOCTYPE svg PUBLIC "-//W3C//DTD SVG 1.1//EN" "http://www.w3.org/Graphics/SVG/1.1/DTD/svg11.dtd"><svg width="100%" height="100%" viewBox="0 0 1146 392" version="1.1" xmlns="http://www.w3.org/2000/svg" xmlns:xlink="http://www.w3.org/1999/xlink" xml:space="preserve" xmlns:serif="http://www.serif.com/" style="fill-rule:evenodd;clip-rule:evenodd;stroke-linejoin:round;stroke-miterlimit:2;"><g><path d="M1087.17,342.687c0.971,-6.912 3.546,-12.491 7.725,-16.775c4.167,-4.27 9.25,-6.404 15.225,-6.404c6.175,0 11.004,2.034 14.479,6.105c3.475,4.07 5.246,9.758 5.296,17.074l-42.725,0Zm55.704,4.092c0,-11.896 -2.837,-21.2 -8.496,-27.887c-5.662,-6.7 -13.679,-10.05 -24.037,-10.05c-10.346,-0 -19.013,3.879 -25.988,11.629c-6.987,7.754 -10.475,17.787 -10.475,30.092c0,13.037 3.2,23.145 9.584,30.325c6.383,7.191 15.166,10.779 26.346,10.779c11.437,-0 20.624,-2.521 27.583,-7.575l-0,-11.896c-7.463,5.875 -15.658,8.812 -24.571,8.812c-7.933,0 -14.167,-2.4 -18.7,-7.195c-4.525,-4.784 -6.892,-11.58 -7.104,-20.392l55.858,-0l0,-6.642Zm-93.608,-36.391c-1.75,-0.717 -4.267,-1.084 -7.563,-1.084c-4.587,0 -8.733,1.563 -12.441,4.679c-3.705,3.117 -6.463,7.455 -8.263,13.021l-0.308,0l-0,-16.308l-12.671,-0l-0,79.117l12.671,-0l-0,-40.334c-0,-8.804 1.808,-15.762 5.437,-20.854c3.638,-5.104 8.159,-7.65 13.559,-7.65c4.175,0 7.37,0.846 9.579,2.546l-0,-13.133Zm-93.192,47.279c0,6.754 -2.042,12.329 -6.141,16.733c-4.096,4.404 -9.28,6.608 -15.563,6.608c-4.596,0 -8.263,-1.229 -11.017,-3.67c-2.758,-2.45 -4.133,-5.609 -4.133,-9.463c-0,-5.308 1.496,-9.013 4.483,-11.096c2.988,-2.083 7.413,-3.537 13.288,-4.358l19.083,-2.629l0,7.875Zm12.671,-19.309c0,-19.679 -9.296,-29.516 -27.896,-29.516c-10.141,-0 -19.108,2.471 -26.883,7.42l-0,12.98c7.671,-6.496 16.279,-9.734 25.808,-9.734c10.867,0 16.3,6.713 16.3,20.167l-23.717,3.321c-17.412,2.417 -26.112,11.017 -26.112,25.796c0,6.908 2.225,12.445 6.679,16.625c4.454,4.162 10.625,6.25 18.508,6.25c10.705,-0 18.821,-4.734 24.334,-14.217l0.308,0l0,12.363l12.671,-0l0,-51.455Zm-99.221,-27.662l-16.071,59.642c-0.775,2.737 -1.212,5.104 -1.316,7.112l-0.617,0c-0.263,-2.829 -0.646,-5.2 -1.158,-7.112l-16.38,-59.642l-11.591,-0l-18.238,59.333c-0.77,2.579 -1.229,4.996 -1.383,7.267l-0.621,-0c-0.208,-2.938 -0.567,-5.304 -1.079,-7.113l-16.379,-59.487l-13.292,-0l23.95,79.117l12.671,-0l17.692,-56.788c0.933,-2.938 1.466,-5.329 1.625,-7.183l0.304,-0c0.216,2.733 0.621,5.175 1.241,7.337l16.305,56.634l13.133,-0l23.717,-79.117l-12.513,-0Zm-127.029,67.529c-2.317,1.75 -5.075,2.629 -8.263,2.629c-4.175,0 -7.162,-1.141 -8.966,-3.404c-1.8,-2.271 -2.696,-6.054 -2.696,-11.358l-0,-44.579l19.925,-0l-0,-10.817l-19.925,-0l-0,-23.404l-12.671,4.091l0,19.313l-13.608,-0l-0,10.817l13.608,-0l0,46.825c0,15.445 6.925,23.174 20.775,23.174c4.9,0 8.834,-0.829 11.821,-2.47l-0,-10.817Zm-73.65,-105.85c-2.267,-0.921 -5.338,-1.392 -9.196,-1.392c-7.154,0 -13.129,2.409 -17.921,7.225c-4.791,4.817 -7.187,11.371 -7.187,19.663l-0,12.825l-13.517,-0l0,10.817l13.517,-0l-0,68.3l12.596,-0l-0,-68.3l18.541,-0l0,-10.817l-18.541,-0l-0,-12.2c-0,-11.179 4.429,-16.771 13.291,-16.771c3.134,0 5.95,0.7 8.417,2.083l0,-11.433Zm-94.412,55.167c4.404,5.354 6.604,12.979 6.604,22.866c-0,9.792 -2.2,17.334 -6.604,22.642c-4.405,5.304 -10.713,7.958 -18.892,7.958c-8.038,0 -14.454,-2.712 -19.246,-8.112c-4.787,-5.413 -7.183,-12.804 -7.183,-22.179c-0,-9.734 2.375,-17.375 7.108,-22.909c4.742,-5.533 11.175,-8.3 19.321,-8.3c8.179,0 14.487,2.68 18.892,8.034Zm8.887,52.725c7.129,-7.592 10.696,-17.7 10.696,-30.321c-0,-12.875 -3.309,-22.942 -9.921,-30.209c-6.617,-7.258 -15.838,-10.895 -27.633,-10.895c-12.363,-0 -22.171,3.741 -29.434,11.204c-7.258,7.471 -10.891,17.846 -10.891,31.137c-0,12.204 3.487,22.005 10.466,29.392c6.984,7.4 16.309,11.092 28.004,11.092c12.005,-0 21.571,-3.796 28.713,-11.4Zm-157.892,7.733c2.396,0.796 4.938,1.463 7.609,2.008c2.679,0.538 5.308,0.955 7.883,1.238c2.575,0.275 4.737,0.421 6.487,0.421c5.259,-0 10.25,-0.525 14.996,-1.584c4.734,-1.058 8.917,-2.766 12.55,-5.137c3.63,-2.367 6.513,-5.45 8.65,-9.238c2.142,-3.783 3.209,-8.404 3.209,-13.866c-0,-4.117 -0.788,-7.771 -2.354,-10.971c-1.571,-3.188 -3.7,-6.1 -6.376,-8.729c-2.675,-2.621 -5.791,-5.021 -9.345,-7.188c-3.555,-2.162 -7.317,-4.225 -11.279,-6.175c-3.867,-1.904 -7.28,-3.654 -10.242,-5.258c-2.958,-1.596 -5.471,-3.246 -7.533,-4.942c-2.059,-1.7 -3.621,-3.579 -4.676,-5.637c-1.054,-2.059 -1.583,-4.509 -1.583,-7.35c0,-3.034 0.696,-5.605 2.088,-7.721c1.391,-2.109 3.196,-3.833 5.408,-5.175c2.217,-1.338 4.737,-2.304 7.571,-2.9c2.833,-0.584 5.671,-0.888 8.5,-0.888c10.246,0 18.641,2.263 25.187,6.796l0,-14.6c-5,-2.629 -12.958,-3.937 -23.87,-3.937c-4.796,-0 -9.496,0.596 -14.105,1.775c-4.612,1.187 -8.716,2.987 -12.325,5.412c-3.6,2.417 -6.516,5.5 -8.725,9.225c-2.22,3.738 -3.325,8.133 -3.325,13.179c0,4.125 0.705,7.713 2.13,10.771c1.408,3.071 3.354,5.813 5.829,8.229c2.471,2.425 5.379,4.638 8.733,6.65c3.342,2.009 6.954,3.996 10.813,5.95c3.654,1.855 7.07,3.621 10.237,5.296c3.171,1.667 5.908,3.417 8.225,5.25c2.325,1.821 4.133,3.85 5.454,6.063c1.313,2.212 1.967,4.816 1.967,7.804c-0,5.567 -1.967,9.821 -5.913,12.783c-3.941,2.963 -9.904,4.446 -17.887,4.446c-2.317,0 -4.842,-0.229 -7.571,-0.692c-2.729,-0.466 -5.446,-1.125 -8.15,-1.97c-2.704,-0.855 -5.279,-1.896 -7.725,-3.134c-2.446,-1.237 -4.542,-2.621 -6.292,-4.175l0,15.304c1.438,0.971 3.354,1.867 5.75,2.667Z" style="fill:#86bc25;fill-rule:nonzero;"/><path d="M223.504,151.879l57.8,-57.796l-79.741,-79.745c-0,-0 -27.263,-27.105 -55.151,-1.742l-146.412,146.421l57.913,57.912l115.324,-115.316l50.267,50.266Z" style="fill:#1e3258;fill-rule:nonzero;"/><path d="M64.962,224.067l80.63,80.629c6.45,5.462 30.916,23.008 55.433,-1.513l144.688,-144.687l-57.321,-57.325l-115.242,115.246l-50.267,-50.271l-57.921,57.921Z" style="fill:#86bc25;fill-rule:nonzero;"/><path d="M478.579,36.083l114.188,0l-0,-34.325l-114.188,0c-8.187,0 -15.871,1.538 -23.029,4.605c-7.175,3.07 -13.408,7.262 -18.704,12.558c-5.304,5.3 -9.488,11.533 -12.554,18.7c-3.075,7.171 -4.609,14.787 -4.609,22.854l0,167.479l34.325,0l0,-98.283l76.242,-0l0,-34.684l-76.242,0l0,-34.512c0,-6.617 2.413,-12.346 7.229,-17.163c4.817,-4.82 10.596,-7.229 17.342,-7.229Zm139.738,191.896l34.875,0l-0,-226.171l-34.875,0l-0,226.171Zm216.337,-64.821c0,9.067 -3.15,16.7 -9.483,22.896c-6.321,6.209 -14.063,9.309 -23.209,9.309l-88.345,-0l-0,-157.667l88.345,-0c9.146,-0 16.888,3.192 23.209,9.571c6.333,6.379 9.483,13.925 9.483,22.629l0,93.262Zm29.363,24.238c3.554,-8.05 5.337,-16.725 5.337,-26.029l0,-93.259c0,-8.946 -1.783,-17.441 -5.337,-25.487c-3.55,-8.059 -8.371,-15.146 -14.45,-21.292c-6.084,-6.142 -13.255,-10.912 -21.504,-14.312c-8.246,-3.396 -16.955,-5.096 -26.101,-5.096l-123.22,-0l-0,226.183l123.22,0c9.146,0 17.855,-1.792 26.101,-5.371c8.249,-3.583 15.42,-8.341 21.504,-14.316c6.079,-5.959 10.9,-12.971 14.45,-21.021Zm278.87,40.708c-0.745,-3.004 -63.604,-168.966 -67.404,-176.429c-9.679,-19.008 -21.25,-31.646 -29.291,-36.846c-5.9,-3.987 -11.009,-7.229 -17.804,-9.508c-6.805,-2.271 -13.642,-3.4 -20.509,-3.4c-6.75,-0 -13.5,1.129 -20.237,3.4c-6.742,2.279 -13.03,5.991 -18.93,9.979c-5.904,3.996 -19.249,16.179 -26.449,31.892c-5.071,11.045 -70.209,177.9 -70.988,180.912l36.8,0c0,0 65.463,-167.371 65.696,-167.816c6.362,-13.934 19.25,-23.488 34.15,-23.488c17.421,0 29.766,11.808 36.796,30.867l61.641,160.437l36.529,0Z" style="fill:#1e3258;fill-rule:nonzero;"/><path d="M1068.62,168.296l-13.388,-34.85l-95.366,-0c-4.555,11.654 -9.217,23.562 -13.625,34.85l122.379,-0Z" style="fill:#1e3258;fill-rule:nonzero;"/></g></svg>